Coordinates
version=1
nRows=54
nColumns=12
inDegrees=yes

Units are S.I. units (second, meters, Newtons, ...)
Angles are in degrees

endheader
time	SC_y	SC_z	SC_x	AC_y	AC_z	AC_x	GH_y	GH_z	GH_yy	EL_x	PS_y
       0.0              -36.09          32.45          26.82          45.03          2.937        -0.6326          46.92          88.88         -40.17           18.3          38.55
   0.03991              -36.09          32.44          26.83          45.03          2.934        -0.6304          46.91          88.86         -40.14          18.31          38.55
   0.07981              -36.09          32.44          26.84          45.03          2.931        -0.6281           46.9          88.85         -40.11          18.32          38.55
    0.1197              -36.09          32.43          26.84          45.03          2.927        -0.6256          46.89          88.83         -40.08          18.32          38.56
    0.1596              -36.09          32.42          26.85          45.03          2.924         -0.623          46.87          88.81         -40.05          18.33          38.56
    0.1995              -36.09          32.42          26.86          45.03           2.92        -0.6202          46.86          88.79         -40.02          18.34          38.56
    0.2394              -36.09          32.41          26.87          45.03          2.916        -0.6172          46.84          88.77         -39.98          18.35          38.57
    0.2793              -36.09           32.4          26.88          45.02          2.911         -0.614          46.83          88.75         -39.94          18.35          38.57
    0.3192              -36.09          32.39           26.9          45.02          2.907        -0.6106          46.81          88.72          -39.9          18.36          38.58
    0.3592              -36.09          32.39          26.91          45.02          2.902         -0.607          46.79           88.7         -39.85          18.37          38.58
    0.3991              -36.09          32.38          26.92          45.02          2.896         -0.603          46.77          88.67          -39.8          18.38          38.59
     0.439              -36.09          32.37          26.94          45.02           2.89        -0.5988          46.75          88.64         -39.75           18.4          38.59
    0.4789              -36.09          32.36          26.95          45.01          2.884        -0.5942          46.73          88.61         -39.69          18.41           38.6
    0.5188              -36.09          32.34          26.97          45.01          2.877        -0.5893           46.7          88.57         -39.63          18.42          38.61
    0.5587              -36.09          32.33          26.99          45.01           2.87         -0.584          46.68          88.53         -39.56          18.44          38.61
    0.5986              -36.08          32.32          27.01          45.01          2.862        -0.5782          46.65          88.49         -39.49          18.45          38.62
    0.6385              -36.08           32.3          27.03           45.0          2.853        -0.5719          46.62          88.45         -39.41          18.47          38.63
    0.6784              -36.08          32.28          27.05           45.0          2.844         -0.565          46.58           88.4         -39.33          18.49          38.64
    0.7183              -36.08          32.27          27.08           45.0          2.834        -0.5575          46.55          88.35         -39.23          18.51          38.65
    0.7582              -36.08          32.25          27.11          44.99          2.822        -0.5494          46.51          88.29         -39.13          18.53          38.66
    0.7981              -36.08          32.22          27.14          44.99           2.81        -0.5404          46.46          88.22         -39.02          18.56          38.67
     0.838              -36.08           32.2          27.17          44.98          2.796        -0.5305          46.41          88.15         -38.89          18.58          38.69
    0.8779              -36.08          32.17          27.21          44.98          2.781        -0.5195          46.36          88.08         -38.76          18.61           38.7
    0.9178              -36.07          32.15          27.25          44.97          2.765        -0.5074           46.3          87.99         -38.61          18.65          38.72
    0.9577              -36.07          32.11           27.3          44.97          2.746         -0.494          46.23          87.89         -38.44          18.68          38.74
    0.9976              -36.07          32.08          27.35          44.96          2.726        -0.4789          46.15          87.79         -38.25          18.72          38.76
     1.038              -36.07          32.04          27.41          44.95          2.703        -0.4621          46.07          87.67         -38.04          18.77          38.78
     1.077              -36.07          31.99          27.48          44.94          2.676        -0.4432          45.97          87.53          -37.8          18.82          38.81
     1.117              -36.06          31.94          27.55          44.93          2.647        -0.4218          45.87          87.38         -37.54          18.88          38.84
     1.157              -36.06          31.88          27.63          44.92          2.614        -0.3975          45.75          87.21         -37.23          18.95          38.87
     1.197              -36.06          31.81          27.73          44.91          2.576        -0.3698          45.61          87.01         -36.89          19.02          38.91
     1.237              -36.05          31.73          27.84          44.89          2.532        -0.3379          45.45          86.79         -36.49          19.11          38.95
     1.277              -36.05          31.65          27.97          44.87          2.481        -0.3012          45.27          86.52         -36.03          19.21           39.0
     1.317              -36.04          31.54          28.12          44.85          2.423        -0.2585          45.05          86.22         -35.49          19.33          39.06
     1.357              -36.03          31.42          28.29          44.83          2.354        -0.2086           44.8          85.87         -34.87          19.46          39.13
     1.397              -36.03          31.28          28.49           44.8          2.273        -0.1497          44.51          85.45         -34.13          19.62          39.21
     1.437              -36.02          31.11          28.73          44.77          2.177       -0.07973          44.16          84.95         -33.26          19.82          39.31
     1.477              -36.01          30.91          29.02          44.73          2.062       0.004136          43.74          84.35         -32.21          20.05          39.42
     1.516              -35.99          30.66          29.38          44.68          1.923         0.1056          43.23          83.63         -30.94          20.32          39.56
     1.556              -35.97          30.36          29.81          44.62          1.752         0.2296          42.61          82.75         -29.39          20.66          39.73
     1.596              -35.95          29.99          30.34          44.55          1.542         0.3825          41.85          81.66         -27.48          21.08          39.94
     1.636              -35.93          29.53           31.0          44.46           1.28         0.5733           40.9          80.31          -25.1           21.6          40.21
     1.676               -35.9          28.95          31.83          44.34         0.9497         0.8136           39.7           78.6         -22.09          22.26          40.54
     1.716              -35.85          28.21          32.89           44.2           0.53          1.119          38.17          76.43         -18.27           23.1          40.96
     1.756               -35.8          27.26          34.24          44.01      -0.007211           1.51          36.22          73.65         -13.39          24.17           41.5
     1.796              -35.73          26.05          35.98          43.78        -0.6966          2.012          33.71          70.08         -7.113          25.54          42.19
     1.836              -35.65           24.5           38.2          43.47         -1.577          2.653          30.51          65.52         0.8994          27.29          43.07
     1.876              -35.54          22.55          40.99          43.09         -2.685          3.459          26.48          59.79          10.97           29.5          44.18
     1.915               -35.4          20.17          44.39          42.62         -4.034          4.441          21.58          52.81          23.25          32.19          45.53
     1.955              -35.25          17.41          48.33          42.08         -5.598          5.579          15.89          44.72          37.48           35.3          47.09
     1.995              -35.08          14.43           52.6          41.49         -7.292          6.812          9.732          35.95          52.89          38.67          48.79
     2.035              -34.91          11.45          56.87          40.91         -8.985          8.045          3.574          27.19           68.3          42.05          50.49
     2.075              -34.76          8.691          60.81          40.37         -10.55          9.183         -2.113           19.1          82.53          45.16          52.05
     2.115              -34.63          6.314          64.22           39.9          -11.9          10.17         -7.019          12.12          94.81          47.85           53.4
